<svg width="20" height="24.000000000000004" xmlns="http://www.w3.org/2000/svg">

 <g>
  <title>background</title>
  <rect fill="none" id="canvas_background" height="26" width="22" y="-1" x="-1"/>
 </g>
 <g>
  <title>Layer 1</title>
  <path fill="#088080" stroke="null" id="svg_1" d="m2.858714,14.74026a2.681225,2.43723 0 1 1 0,-4.874459a2.681225,2.43723 0 0 1 0,4.874459zm0,-1.62482a0.893742,0.81241 0 1 0 0,-1.62482a0.893742,0.81241 0 0 0 0,1.62482zm7.149933,1.62482a2.681225,2.43723 0 1 1 0,-4.874459a2.681225,2.43723 0 0 1 0,4.874459zm0,-1.62482a0.893742,0.81241 0 1 0 0,-1.62482a0.893742,0.81241 0 0 0 0,1.62482zm7.149933,1.62482a2.681225,2.43723 0 1 1 0,-4.874459a2.681225,2.43723 0 0 1 0,4.874459zm0,-1.62482a0.893742,0.81241 0 1 0 0,-1.62482a0.893742,0.81241 0 0 0 0,1.62482z" class="heroicon-ui"/>
 </g>
</svg>