<svg width="20" height="20" xmlns="http://www.w3.org/2000/svg">

 <g>
  <title>background</title>
  <rect fill="none" id="canvas_background" height="22" width="22" y="-1" x="-1"/>
 </g>
 <g>
  <title>Layer 1</title>
  <path fill="#ffffff" stroke="null" id="svg_1" d="m17.6853,3.903738l-11.312939,11.31294a1.098344,1.098344 0 1 1 -1.537681,-1.559648l11.290972,-11.301956l-3.93207,0a1.098344,1.098344 0 0 1 0,-2.196687l6.590062,0a1.098344,1.098344 0 0 1 1.098344,1.098344l0,6.590062a1.098344,1.098344 0 0 1 -2.196687,0l0,-3.943054zm-2.196687,8.336428a1.098344,1.098344 0 0 1 2.196687,0l0,5.491718a2.196687,2.196687 0 0 1 -2.196687,2.196687l-13.180123,0a2.196687,2.196687 0 0 1 -2.196687,-2.196687l0,-13.180124c0,-1.208178 0.988509,-2.196687 2.196687,-2.196687l5.491718,0a1.098344,1.098344 0 0 1 0,2.196687l-5.491718,0l0,13.180124l13.180123,0l0,-5.491718z" class="heroicon-ui"/>
 </g>
</svg>